<?xml version="1.0" encoding="utf-8"?>
<!-- Generator: Adobe Illustrator 25.2.3, SVG Export Plug-In . SVG Version: 6.00 Build 0)  -->
<svg version="1.1"
	 id="svg2" inkscape:version="0.92.2 5c3e80d, 2017-08-06" xmlns:cc="http://creativecommons.org/ns#" xmlns:dc="http://purl.org/dc/elements/1.1/" xmlns:inkscape="http://www.inkscape.org/namespaces/inkscape" xmlns:rdf="http://www.w3.org/1999/02/22-rdf-syntax-ns#" xmlns:sodipodi="http://sodipodi.sourceforge.net/DTD/sodipodi-0.dtd" xmlns:svg="http://www.w3.org/2000/svg"
	 xmlns="http://www.w3.org/2000/svg" xmlns:xlink="http://www.w3.org/1999/xlink" x="0px" y="0px" viewBox="0 0 558 1026"
	 style="enable-background:new 0 0 558 1026;" xml:space="preserve">
<style type="text/css">
	.st0{fill:#C30000;}
	.st1{enable-background:new    ;}
</style>
<defs>
	<inkscape:path-effect  effect="spiro" id="path-effect3836" is_visible="true"></inkscape:path-effect>
	<inkscape:path-effect  effect="spiro" id="path-effect3827" is_visible="true"></inkscape:path-effect>
	<inkscape:path-effect  effect="spiro" id="path-effect3822" is_visible="true"></inkscape:path-effect>
	<inkscape:path-effect  effect="spiro" id="path-effect3817" is_visible="true"></inkscape:path-effect>
	<inkscape:path-effect  effect="spiro" id="path-effect3812" is_visible="true"></inkscape:path-effect>
	<inkscape:path-effect  effect="spiro" id="path-effect3807" is_visible="true"></inkscape:path-effect>
	<inkscape:path-effect  effect="spiro" id="path-effect3797" is_visible="true"></inkscape:path-effect>
</defs>
<sodipodi:namedview  bordercolor="#666666" borderopacity="1.0" id="base" inkscape:current-layer="g3820" inkscape:cx="299.21339" inkscape:cy="384.5572" inkscape:document-units="px" inkscape:pageopacity="0.0" inkscape:pageshadow="2" inkscape:window-height="947" inkscape:window-maximized="1" inkscape:window-width="1680" inkscape:window-x="0" inkscape:window-y="1" inkscape:zoom="0.27817629" pagecolor="#ffffff" showgrid="false">
	</sodipodi:namedview>
<g id="layer1" transform="translate(0,-26.36153)" inkscape:groupmode="layer" inkscape:label="Livello 1">
	<g id="g8264" transform="translate(-105.81428,-1728.6832)">
		<g id="g3820" transform="translate(233.14681,1068.9516)">
			<g id="path3768-8" inkscape:connector-curvature="0" sodipodi:nodetypes="cccccccccccccccc">
				<path class="st0" d="M426.9,689.5c-0.4,0.5-1.1,1-2.1,1.5c-1.3,0.6-2,2-1.6,3.4c6.3,21.4-1.6,39.4-9.9,58.6
					c-0.9,2.1-1.9,4.4-2.8,6.5c-12,22.8-24.7,46.2-38.2,71c-61.2,112.7-130.5,240.4-150.8,348c0,0.2,0,0.3,0,0.5v37.6
					c0,0.1,0,0.3,0,0.4l69.3,470.5c-0.3,1.2-3.8,8.5-50.3,14.9c-31.8,4.4-67.8,6.2-88.9,6.5c-2.1,0-4.4,0.1-6.8,0.1
					c-25.8,0-59.3-2.6-85.4-6.5c-43.8-6.7-46.7-13.8-46.9-14.9l69.3-470.6c0-0.1,0-0.3,0-0.4V1179c0-0.2,0-0.4,0-0.5
					C61.4,1070.9-7.9,943.1-69.1,830.4c-13.4-24.8-26.1-48.1-38.1-70.9c-0.9-2.2-1.9-4.4-2.8-6.5c-8.3-19.1-16.2-37.2-9.9-58.6
					c0.4-1.4-0.3-2.8-1.6-3.4c-1-0.4-1.7-0.9-2.1-1.4c66.3,8.7,258.1,16.6,283.5,16.7c0.2,0,0.3,0,0.5,0c0,0,0.1,0,0.1,0
					C230.5,703.5,377.5,695.7,426.9,689.5 M-126.9,686.3c-0.7,3.5,1.2,6,4.3,7.4c-7.3,24.9,3.8,45.8,12.9,67.1
					C-42.2,889.1,54.4,1048.7,79,1179v37.6L9.6,1687.5c0,14.9,86.5,24.4,135.2,24.4c2.4,0,4.7,0,6.9-0.1c49-0.5,141.6-8.7,142-24.3
					l-69.3-470.9V1179c24.6-130.4,121.2-289.9,188.8-418.3c9-21.3,20.2-42.2,12.9-67.1c3.1-1.3,5-3.9,4.3-7.4
					c-47.2,6.5-204.9,14.6-269.8,17.2v0C139.3,703.4-63.4,695.3-126.9,686.3L-126.9,686.3L-126.9,686.3z"/>
			</g>
			<path id="path3780" inkscape:connector-curvature="0" class="st0" d="M135.1,796.6l0.5,13.5c0.6,5,1.4,9.1,9.5,9.6v0c0,0,0,0,0,0
				c0,0,0,0,0,0v0c8.4-0.9,9.2-4.6,9.8-9.6l0.5-13.5h-10.3L135.1,796.6L135.1,796.6z M140.3,800.5c1,0,1.8,0.8,1.8,1.8c0,0,0,0,0,0
				c0,1-0.8,1.8-1.8,1.8c0,0,0,0,0,0c-1,0-1.8-0.8-1.8-1.8c0,0,0,0,0,0C138.5,801.3,139.3,800.5,140.3,800.5
				C140.3,800.5,140.3,800.5,140.3,800.5z M150.4,800.5c1,0,1.8,0.8,1.8,1.8c0,0,0,0,0,0c0,1-0.8,1.8-1.8,1.8c0,0,0,0,0,0
				c-1,0-1.8-0.8-1.8-1.8C148.6,801.3,149.4,800.5,150.4,800.5z M145.3,805.2c1,0,1.8,0.8,1.8,1.8c0,0,0,0,0,0c0,1-0.8,1.8-1.8,1.8
				c0,0,0,0,0,0c-1,0-1.8-0.8-1.8-1.8c0,0,0,0,0,0C143.5,806,144.3,805.2,145.3,805.2C145.3,805.2,145.3,805.2,145.3,805.2z
				 M140.3,810.1c1,0,1.8,0.8,1.8,1.8c0,0,0,0,0,0c0,1-0.8,1.8-1.8,1.8c0,0,0,0,0,0c-1,0-1.8-0.8-1.8-1.8c0,0,0,0,0,0
				C138.5,810.9,139.3,810.1,140.3,810.1C140.3,810.1,140.3,810.1,140.3,810.1z M150.4,810.1c1,0,1.8,0.8,1.8,1.8c0,0,0,0,0,0
				c0,1-0.8,1.8-1.8,1.8c0,0,0,0,0,0c-1,0-1.8-0.8-1.8-1.8C148.6,810.9,149.4,810.1,150.4,810.1z"/>
			<path id="path3824" inkscape:connector-curvature="0" sodipodi:nodetypes="ccccccccccccccccccc" class="st0" d="M182,803.1
				c21.4,18.2,37.7,38.8,3.3,83c-16.8,16.4-35.6,30.3-68.9,25.5c-26.8-5.4-39.4-26.7-54.8-44.9C38.1,839,21.9,843,8,856.7
				c-9.3,11.7-16.8,34.4-32.1,9.3c-31.3-33.3-36.2-18.4-28.5,7.5l18,34.7l-7.5-31.2c-2-15.8,2.8-11.2,8.7-3.3l13.5,17.4
				c9,10.6,17.4,11,24.9-2.4l9.3-12.9c12.2-13.5,22.1-5.7,31.2-0.9c10.9,8.6,24.8,34,41.9,48.2c26.5,19.3,56.3,20.6,90.8-3.3
				c18-12.4,31.1-28.9,38.6-50c6.8-19.6,3.6-37.9-9.6-55.1C200,808.1,192.3,804.2,182,803.1z"/>
			<path id="path3822" inkscape:connector-curvature="0" sodipodi:nodetypes="ccccccccccc" class="st0" d="M318.9,877.1l-28.5,39.8
				c-26.6,9.2-39.5-7.2-47-33.8c-14.8-62.9-25.3-89.6-65.9-102.1c-37.5-5.1-66,0.4-81.2,21.6c-36.6,62.8,40.9,113.8,76.7,80
				c-28.8,33.2-88.3,26.6-108.4-48.5c-0.3-27.6,5.8-67.2,73.7-76.4c26.5,0,71.2-7.6,103.3,44.9c9.3,21.3,15.7,42.5,21.9,63.8
				C283,897.4,300.9,887.3,318.9,877.1L318.9,877.1z"/>
			<path id="path3797" inkscape:connector-curvature="0" sodipodi:nodetypes="cccccccccccccc" class="st0" d="M404.8,775.3
				c-4,6.9-27.3,28.2-32.8,35c-43.1,53-198.4,206.8-205.4,379.4c0,111.7-0.1,221.1-0.1,333.4h40.7c-29.4,9.9-40.4,21.6-40.4,74.5
				c34,4.4,69.1-7.1,72.9-40.4v115.2c-11.6-44.5-57.2-36.8-72.2-36.8c0,14.2-1,74.1,38.4,74.1c6.3,0,80.8-7.5,86.7-24.7l-68.2-464.7
				V1181C240.9,1068.7,354.9,867.3,404.8,775.3z"/>
			<ellipse id="path3894" class="st0" cx="322.4" cy="768.9" rx="5.8" ry="7.1"/>
			<path id="path3898" inkscape:connector-curvature="0" sodipodi:nodetypes="ccccc" class="st0" d="M302.6,781.1
				c0.8-0.6,1.6-0.9,2.1,0.9c-6.8,25.3-21.4,42.3-40.6,54.2c-1.7-0.2-3-0.7-1.9-2.6C283.5,821.1,295.4,802.5,302.6,781.1
				L302.6,781.1z"/>
			
				<path id="path3900" inkscape:connector-curvature="0" sodipodi:nodetypes="ccccccccccccccccccccccccccccccccccccc" class="st0" d="
				M301.4,847c-3.4-0.1-5.2,1.3-5.2,4.7l-1.4,4.8c-0.6,2.4-2.2,9,2.2,4.1l3.5-7.1l3.6-4.4l16-17.2c3.2-3.6,1.9-8.6-1-9.3l-11.8-1.4
				l4-12.9l3.2-5.7l7.5-12l1.8-1.3c1.8,0.3,3.2-0.3,4.3-2.1l1.3-6.1l2.8-4c0.3-3.6-0.8-4.3-2.6-3.4l-3.4,4l-3.4,4.5l-2.6,2.5
				l-4.5,4.3l-6.7,8.5l-4,6.6l-6,13.2l-2.1,0.8c-3.6-0.3-5.6-2.6-7.1-5.3l-3.1-1.4c-1.2,0.4-2.9,1.2-4.8,1.9c-0.8,2.1-2.2,4-2.1,6.3
				l5.3,5.7c1.9,1.1,3.9,2.5,6.5,4.3c4,2.5,7.9,3.1,11.9,2.2l5.2-0.6l6.3,0.3l-5.8,4.5c-2.1,2.1-3.6,4.2-5,6.3L301.4,847z"/>
			<circle id="path3902" class="st0" cx="279.7" cy="811.2" r="5.9"/>
			<ellipse id="path3904" class="st0" cx="9.8" cy="842.4" rx="6.7" ry="6.8"/>
			<ellipse id="path3906" class="st0" cx="-18.5" cy="775.4" rx="6" ry="8.3"/>
			<path id="path3908" inkscape:connector-curvature="0" sodipodi:nodetypes="ccccccccccc" class="st0" d="M-32,802.7
				c1.6,3.6,2.3,2,2.8-0.1c0.4-5.5,3.6-8.8,7.1-11.9c5.6-6.1,14.5-2.3,22.4-5.8l14.4-10.1c2.6-3.7-1-3.8-3.2-2.3l-14.2,7.8
				c-4.9,2.1-8,0.8-11.6,0.6l-9.8,2.8c-3.2,4.1-7.7,6.2-8.5,14C-32.6,799.1-32.4,800.8-32,802.7z"/>
			<path id="path3910" inkscape:connector-curvature="0" sodipodi:nodetypes="ccccccccccccccc" class="st0" d="M-23,787.3l12.5-3.8
				c5.3,7.1,10.2,14.2,11.8,22c5.1,2.5,10.2,3.7,15.3,9.1c5,9.3,6.4,20,8.9,30.3c-0.7,2.5-3.1,2.8-3.8,1.2
				c-3.4-8.5-5.9-16.9-10.2-25.4c-3.2-3.6-7.5-4-11.8-4.7c-0.7,6.9-2,13.5-6.9,18c-1.4,2.5-2.8,1.7-4.3,0.9
				c-8.8-4.8-14.7-10.5-21.6-15.9c-1.9-1.9-0.7-5.9,3-3.8c5.7,3.7,10.2,9.1,17.1,11c1.5,0.9,3,1.4,4.1-1.4
				C-11,798.1-16.2,800-23,787.3L-23,787.3z"/>
			<path id="path3797-7" inkscape:connector-curvature="0" sodipodi:nodetypes="czcccccccccccc" class="st0" d="M-35.3,903.3
				c4,6.9,53.2,50.5,74.7,77c21.6,26.5,90.3,93.6,92.3,210.4c0,111.7,0.1,221.1,0.1,333.4H91.1c29.4,9.9,40.4,21.6,40.4,74.5
				c-34,4.4-69.1-7.1-72.9-40.4v115.2c11.6-44.5,57.2-36.8,72.2-36.8c0,14.2,1,73.2-38.4,73.2c-6.3,0-81.5-5.9-87.4-23.1l68.8-465.4
				v-39.4C57.4,1069.6,14.7,995.4-35.3,903.3z"/>
			<g class="st1">
				<path class="st0" d="M151.4,1680.8c1.3,0,2.4,0.4,3.4,1.1c0.9,0.6,1.5,1.4,2,2.4c0.4,0.9,0.6,2,0.6,3.3c0,1.6-0.4,3.1-1.1,4.6
					l-0.3,0.1c-0.9-0.2-2.2-0.3-3.9-0.3l-0.1-0.1v-0.7l0.1-0.1h0.3c0.4,0,1,0,1.8-0.1c0.5-0.3,0.9-0.8,1.3-1.4
					c0.4-0.7,0.6-1.5,0.6-2.3c0-1.5-0.5-2.5-1.6-3.1c-0.6-0.3-1.1-0.4-1.7-0.4c-1,0-1.7,0.4-2.2,1.2c-0.2,0.4-0.4,1-0.5,1.9
					c-0.3,2-0.7,3.3-1.2,3.9c-0.7,0.9-1.9,1.4-3.4,1.4c-1.6,0-2.9-0.5-3.9-1.5c-1-1.1-1.5-2.6-1.5-4.5c0-1.7,0.3-3.2,0.9-4.2
					l0.3-0.1c0.9,0.2,2.1,0.3,3.4,0.3l0.1,0.1v0.7l-0.1,0.1c-0.9,0-1.6,0.1-1.8,0.1c-0.4,0.2-0.7,0.6-0.9,1.2
					c-0.3,0.6-0.4,1.2-0.4,1.9c0,1,0.3,1.8,0.8,2.4c0.5,0.5,1.2,0.8,2,0.8c0.9,0,1.6-0.3,2-0.9c0.3-0.4,0.5-1.4,0.8-2.9
					c0-0.2,0.1-0.6,0.2-1.3c0.1-0.4,0.2-0.8,0.3-1.2c0.3-0.8,0.8-1.3,1.4-1.7C149.6,1681,150.4,1680.8,151.4,1680.8z"/>
				<path class="st0" d="M141.1,1654.4l0.1,0.1c0,0.9,0.2,1.4,0.7,1.5c0.3,0.1,0.9,0.1,1.8,0.1c0.7,0,1.7,0,3,0h3.6
					c2.3,0,4,0.4,5,1.3c1.3,1.2,2,2.8,2,4.9c0,2-0.3,3.5-1,4.6c-0.6,0.9-1.4,1.5-2.5,1.8c-0.7,0.2-2.5,0.3-5.4,0.3h-3.1
					c-1.9,0-3.1,0-3.7,0.1c-0.2,0-0.4,0.2-0.4,0.4c0,0.1-0.1,0.5-0.1,1.3l-0.1,0.1h-0.8l-0.1-0.1c0-0.7,0.1-1.9,0.1-3.4
					c0-1.6,0-2.8-0.1-3.4l0.1-0.1h0.8l0.1,0.1c0,0.8,0.1,1.2,0.1,1.3c0.1,0.2,0.2,0.3,0.4,0.4c0.6,0.1,1.8,0.1,3.7,0.1h2.4
					c3,0,4.8-0.1,5.5-0.4c1.3-0.5,2-1.8,2-3.8c0-1.3-0.3-2.3-1-3.1c-0.3-0.3-0.7-0.6-1-0.7c-0.3-0.1-0.8-0.2-1.5-0.3
					c-0.6-0.1-1.3-0.1-2-0.1h-2.5c-2.1,0-3.5,0-4.2,0c-0.7,0-1.2,0.1-1.4,0.1c-0.2,0.1-0.3,0.2-0.4,0.4c-0.1,0.2-0.1,0.6-0.2,1.4
					l-0.1,0.1h-0.8l-0.1-0.1c0-0.6,0.1-1.3,0.1-2c0-0.5,0-1.5-0.1-3l0.1-0.1H141.1z"/>
				<path class="st0" d="M143.9,1632.4c1.6,0,2.9,0.5,3.8,1.6c0.9,1,1.4,2.2,1.4,3.6c0,0.4-0.1,0.9-0.2,1.4
					c-0.2,0.1-0.5,0.2-0.9,0.4l-0.3-0.2c0.1-0.3,0.2-0.6,0.2-0.9c0-0.8-0.3-1.4-0.8-1.8c-0.6-0.5-1.4-0.7-2.4-0.7
					c-2.2,0-3.3,0.9-3.3,2.8c0,0.2,0,0.7,0.1,1.3c0.2,0.1,1.5,0.1,3.9,0.1h6.3c1.9,0,3.1,0,3.7-0.1c0.2,0,0.4-0.2,0.4-0.4
					c0-0.1,0.1-0.6,0.1-1.5l0.1-0.1h0.8l0.1,0.1c0,1-0.1,2.2-0.1,3.7c0,1.6,0,2.8,0.1,3.4l-0.1,0.1h-0.8l-0.1-0.1
					c0-0.8-0.1-1.2-0.1-1.3c-0.1-0.2-0.2-0.3-0.4-0.4c-0.6-0.1-1.8-0.1-3.7-0.1h-6.3c-1.9,0-3.1,0-3.7,0.1c-0.2,0-0.4,0.2-0.4,0.4
					c0,0.1-0.1,0.5-0.1,1.3l-0.1,0.1h-0.8l-0.1-0.1c0-0.7,0.1-1.9,0.1-3.4c0-0.6,0-1.5,0-2.7c0-1.2,0-1.9,0-2c0-2,0.5-3.4,1.6-4
					C142.4,1632.5,143.1,1632.4,143.9,1632.4z"/>
				<path class="st0" d="M153,1610.7c1.2,0.2,2.5,0.2,3.9,0.2l0.1,0.1l-0.1,8.1c0,1.4,0,2.3,0.1,2.9l-0.1,0.1h-0.3l-0.1-0.1
					c-0.4-0.6-0.6-0.9-0.7-0.9c-0.2-0.1-0.7-0.1-1.6-0.1l-2.6,0h-6c-1.9,0-3.1,0-3.7,0.1c-0.2,0-0.4,0.2-0.4,0.4
					c0,0.1-0.1,0.5-0.1,1.3l-0.1,0.1h-0.8l-0.1-0.1c0-0.8,0.1-1.9,0.1-3.5c0-1.4,0-4.1-0.1-8l0.1-0.1l1.3,0.1c0.4,0,0.8,0.1,1.1,0.1
					l1.1,0.1l0.1,0.1v0.6l-0.1,0.1c-1.1,0-1.7,0.1-1.8,0.2c-0.1,0.1-0.2,0.5-0.3,1.2c-0.1,0.7-0.1,1.4-0.1,1.9c0,0.6,0,1.3,0.1,2
					c0.8,0.1,2,0.1,3.4,0.1h2.4c0-0.6,0.1-1.1,0.1-1.4l0-1.5c0-0.7-0.1-1.1-0.2-1.2c-0.1-0.1-0.7-0.2-1.6-0.2l-0.1-0.1v-0.7l0.1-0.1
					c0.9,0,1.7,0,2.4,0c0.8,0,1.7,0,2.6,0l0.1,0.1v0.8l-0.1,0.1c-0.9,0-1.4,0.1-1.6,0.2c-0.2,0.1-0.3,0.5-0.3,1.1
					c0,0.5-0.1,0.9-0.1,1.5c0,0.5,0,1.1,0.1,1.5h3.6c1,0,2,0,3-0.1v-1.5c0-2.2-0.1-3.5-0.3-4c0-0.1-0.1-0.1-0.1-0.2
					c-0.1-0.1-0.3-0.1-0.7-0.2l-1.5-0.3l-0.1-0.1v-0.7L153,1610.7z"/>
				<path class="st0" d="M156.9,1585.8l0.1,0.1c0,0.1,0,0.2,0,0.4c0,1-0.1,1.7-0.1,1.9c0,0.4,0,1,0.1,1.8c-0.2,0-0.5,0.2-0.9,0.4
					l-4.9,2.8l-2,1.2c-0.2,0.2-0.5,0.4-0.7,0.7l-0.4-0.1c0-0.2,0-0.3,0-0.4c0-0.7-0.1-1.3-0.4-1.7c-0.2-0.4-0.6-0.7-1.2-1.1
					s-1.2-0.5-2-0.5c-1.3,0-2.2,0.5-2.7,1.4c-0.2,0.4-0.3,1.1-0.3,2c0,0.4,0,0.7,0.1,1.1c0.8,0.1,2.1,0.1,3.9,0.1h6.2
					c1.9,0,3.1,0,3.7-0.1c0.2,0,0.4-0.2,0.4-0.4c0-0.1,0.1-0.5,0.1-1.3l0.1-0.1h0.8l0.1,0.1c0,0.7-0.1,1.9-0.1,3.4
					c0,1.6,0,2.8,0.1,3.4l-0.1,0.1h-0.8l-0.1-0.1c0-0.8-0.1-1.2-0.1-1.3c-0.1-0.2-0.2-0.3-0.4-0.4c-0.6-0.1-1.8-0.1-3.7-0.1h-6.3
					c-1.9,0-3.1,0-3.7,0.1c-0.2,0-0.4,0.2-0.4,0.4c0,0.1-0.1,0.5-0.1,1.3l-0.1,0.1h-0.8l-0.1-0.1c0-0.7,0.1-1.9,0.1-3.4
					c0-0.9,0-1.6,0-2.2c0-1.1-0.1-2-0.1-2.5c0-1.3,0.1-2.2,0.4-2.8c0.3-0.8,0.9-1.4,1.7-1.6c0.4-0.1,0.8-0.2,1.4-0.2
					c2.1,0,3.7,1.1,4.6,3.4c0.7-0.4,1.3-0.8,2-1.2l2.8-1.7c1.7-1,2.6-1.7,2.8-2c0.1-0.2,0.2-0.4,0.2-0.7l0.1-0.1H156.9z"/>
				<path class="st0" d="M140.3,1562.7c0.6,0.1,1.2,0.1,1.8,0.1l2,0l0.1,0.1v0.7l-0.1,0.1c-1,0-1.6,0.1-1.8,0.1
					c-0.3,0.1-0.5,0.3-0.6,0.7c0,0.1,0,0.9,0,2.1v1.5c0.3,0,1.4,0,3.3,0h6.7c1.9,0,3.1,0,3.7-0.1c0.2,0,0.4-0.2,0.4-0.4
					c0-0.1,0.1-0.5,0.1-1.3l0.1-0.1h0.8l0.1,0.1c0,0.7-0.1,1.9-0.1,3.4c0,1.6,0,2.7,0.1,3.4l-0.1,0.1h-0.8l-0.1-0.1
					c0-0.8-0.1-1.2-0.1-1.3c-0.1-0.2-0.2-0.3-0.4-0.4c-0.6-0.1-1.8-0.1-3.7-0.1H145c-1.9,0-3,0-3.3,0v1.6c0,1.3,0,2.1,0.1,2.3
					c0,0.1,0.1,0.2,0.2,0.2c0.1,0.1,0.4,0.1,0.8,0.2c0.4,0.1,0.8,0.1,1.3,0.1l0.1,0.1v0.7l-0.1,0.1l-2,0c-0.6,0-1.2,0.1-1.8,0.1
					l-0.1-0.1c0.1-0.4,0.1-2,0.1-4.8v-4.5c0-2.6,0-4.2-0.1-4.8L140.3,1562.7z"/>
				<path class="st0" d="M156.9,1538.4l0.1,0.1c0,1.7-0.1,2.7-0.1,3c0,1.4,0,2.7,0.1,3.8l-0.1,0.1h-0.7l-0.1-0.1l-0.1-1
					c0-0.4-0.2-0.6-0.5-0.6c-0.2,0-0.5,0.1-1.1,0.3l-2.5,0.9c0,1,0,2.1,0,3.2c0,0.6,0,1.4,0,2.6l1.4,0.5c1.1,0.4,1.8,0.6,2.1,0.6
					c0.3,0,0.5-0.2,0.5-0.5c0-0.2,0.1-0.6,0.1-1.1l0.1-0.1h0.8l0.1,0.1c0,1.4-0.1,2.3-0.1,2.7c0,0.3,0,1.1,0.1,2.3l-0.1,0.1h-0.8
					l-0.1-0.1c0-0.8-0.2-1.2-0.5-1.4c-0.3-0.2-1.9-0.8-4.9-2l-7.7-2.9c-0.6-0.2-1.5-0.5-2.7-1v-1.6l14.7-5.9
					c0.6-0.2,0.9-0.4,0.9-0.6c0.1-0.2,0.1-0.6,0.1-1.1l0.1-0.1H156.9z M150.5,1545.5l-6.2,2.4l6.2,2.3c0-0.6,0-1.4,0-2.4
					C150.5,1546.8,150.5,1546.1,150.5,1545.5z"/>
				<path class="st0" d="M154.8,1514l1.2,0.5c0.9,1.6,1.4,3.3,1.4,5.3v0.3l1.1,0.5c0-0.2-0.1-0.5-0.1-0.8c0-0.6,0.1-1.1,0.4-1.5
					c0.3-0.5,0.8-0.7,1.4-0.7c0.8,0,1.3,0.4,1.7,1.1c0.3,0.6,0.5,1.3,0.5,2.1c0,0.7-0.1,1.4-0.4,2.1l-0.2,0.1l-0.6-0.2l-0.1-0.2
					c0.2-0.5,0.3-1,0.3-1.4c0-0.3-0.1-0.6-0.3-0.8c-0.2-0.2-0.4-0.3-0.8-0.3c-0.3,0-0.5,0.1-0.7,0.3c-0.2,0.2-0.3,0.4-0.3,0.7
					c0,0.2,0,0.4,0.1,0.6l-0.2,0.3l-2-0.8c-0.3,3.2-1.8,5.5-4.4,6.8c-1.4,0.7-2.9,1-4.5,1c-2.6,0-4.6-0.8-6.2-2.4
					c-1.6-1.7-2.4-3.9-2.4-6.8c0-1.8,0.4-3.6,1.1-5.4l0.2-0.1c1.1,0.3,2.4,0.4,3.8,0.5l0.1,0.1v0.7l-0.1,0.1c-1,0-1.6,0.1-2,0.1
					c-1.1,0.9-1.7,2.3-1.7,4c0,1.8,0.6,3.2,1.8,4.3c1.2,1,2.9,1.5,4.9,1.5c2.8,0,5-0.9,6.5-2.8c0.8-1,1.2-2.3,1.2-3.9
					c0-1.5-0.4-3-1.2-4.4L154.8,1514z"/>
				<path class="st0" d="M156.9,1488l0.1,0.1c0,1.7-0.1,2.7-0.1,3c0,1.4,0,2.7,0.1,3.8l-0.1,0.1h-0.7l-0.1-0.1l-0.1-1
					c0-0.4-0.2-0.6-0.5-0.6c-0.2,0-0.5,0.1-1.1,0.3l-2.5,0.9c0,1,0,2.1,0,3.2c0,0.6,0,1.4,0,2.6l1.4,0.5c1.1,0.4,1.8,0.6,2.1,0.6
					c0.3,0,0.5-0.2,0.5-0.5c0-0.2,0.1-0.6,0.1-1.1l0.1-0.1h0.8l0.1,0.1c0,1.4-0.1,2.3-0.1,2.7c0,0.3,0,1.1,0.1,2.3l-0.1,0.1h-0.8
					l-0.1-0.1c0-0.8-0.2-1.2-0.5-1.4c-0.3-0.2-1.9-0.8-4.9-2l-7.7-2.9c-0.6-0.2-1.5-0.5-2.7-1v-1.6l14.7-5.9
					c0.6-0.2,0.9-0.4,0.9-0.6c0.1-0.2,0.1-0.6,0.1-1.1l0.1-0.1H156.9z M150.5,1495.1l-6.2,2.4l6.2,2.3c0-0.6,0-1.4,0-2.4
					C150.5,1496.4,150.5,1495.7,150.5,1495.1z"/>
				<path class="st0" d="M154.8,1449.9l1.2,0.5c0.9,1.6,1.4,3.3,1.4,5.3c0,3.9-1.5,6.6-4.4,8c-1.4,0.7-2.9,1-4.5,1
					c-2.6,0-4.6-0.8-6.2-2.4c-1.6-1.7-2.4-3.9-2.4-6.8c0-1.8,0.4-3.6,1.1-5.4l0.2-0.1c1.1,0.3,2.4,0.4,3.8,0.5l0.1,0.1v0.7l-0.1,0.1
					c-1,0-1.6,0.1-2,0.1c-1.1,0.9-1.7,2.3-1.7,4c0,1.8,0.6,3.2,1.8,4.3c1.2,1,2.9,1.5,4.9,1.5c2.8,0,5-0.9,6.5-2.8
					c0.8-1,1.2-2.3,1.2-3.9c0-1.5-0.4-3-1.2-4.4L154.8,1449.9z"/>
				<path class="st0" d="M138.6,1428.5l0.1,0v0.9l-2.5,2.9l2.5,2.9v0.9l-0.1,0l-4.2-2.7v-2.2L138.6,1428.5z M156.9,1423.9l0.1,0.1
					c0,1.7-0.1,2.7-0.1,3c0,1.4,0,2.7,0.1,3.8l-0.1,0.1h-0.7l-0.1-0.1l-0.1-1c0-0.4-0.2-0.6-0.5-0.6c-0.2,0-0.5,0.1-1.1,0.3
					l-2.5,0.9c0,1,0,2.1,0,3.2c0,0.6,0,1.4,0,2.6l1.4,0.5c1.1,0.4,1.8,0.6,2.1,0.6c0.3,0,0.5-0.2,0.5-0.5c0-0.2,0.1-0.6,0.1-1.1
					l0.1-0.1h0.8l0.1,0.1c0,1.4-0.1,2.3-0.1,2.7c0,0.3,0,1.1,0.1,2.3l-0.1,0.1h-0.8l-0.1-0.1c0-0.8-0.2-1.2-0.5-1.4
					c-0.3-0.2-1.9-0.8-4.9-2l-7.7-2.9c-0.6-0.2-1.5-0.5-2.7-1v-1.6l14.7-5.9c0.6-0.2,0.9-0.4,0.9-0.6c0.1-0.2,0.1-0.6,0.1-1.1
					l0.1-0.1H156.9z M150.5,1431l-6.2,2.4l6.2,2.3c0-0.6,0-1.4,0-2.4C150.5,1432.3,150.5,1431.5,150.5,1431z"/>
				<path class="st0" d="M141.1,1396.9l0.1,0.1c0,0.8,0.1,1.2,0.1,1.3c0.1,0.2,0.2,0.3,0.4,0.4c0.6,0.1,1.8,0.1,3.7,0.1h4.8
					c3.5,0,5.8,0,6.9-0.1l0.1,0.1c-0.1,0.8-0.3,1.5-0.3,1.9c-2.4,2-6.7,5.4-13,10.2h7.7c1.9,0,3.1,0,3.7-0.1c0.2,0,0.4-0.2,0.4-0.4
					c0-0.1,0.1-0.5,0.1-1.3l0.1-0.1h0.8l0.1,0.1c0,0.9-0.1,1.7-0.1,2.4c0,0.9,0,1.7,0.1,2.6l-0.1,0.1h-0.8l-0.1-0.1
					c0-0.8-0.1-1.2-0.1-1.3c-0.1-0.2-0.2-0.3-0.4-0.4c-0.6-0.1-1.8-0.1-3.7-0.1h-6.3c-1.9,0-3.1,0-3.7,0.1c-0.2,0-0.4,0.2-0.4,0.4
					c0,0.1-0.1,0.5-0.1,1.3l-0.1,0.1h-0.8l-0.1-0.1c0-0.7,0.1-1.4,0.1-2c0-1,0-1.8-0.1-2.5c3.8-2.7,7.8-5.8,12.2-9.5h-6.9
					c-1.9,0-3.1,0-3.7,0.1c-0.2,0-0.4,0.2-0.4,0.4c0,0.1-0.1,0.5-0.1,1.3l-0.1,0.1h-0.8l-0.1-0.1c0-0.8,0.1-1.6,0.1-2.4
					c0-1,0-1.8-0.1-2.6l0.1-0.1H141.1z"/>
				<path class="st0" d="M147.6,1370.2c2.7,0,4.9,0.8,6.6,2.5c0.9,0.8,1.5,1.8,2,2.9c0.5,1.2,0.8,2.7,0.7,4.3l-0.1,4
					c0,1.1,0,2,0.1,2.7l-0.1,0.1h-0.3l-0.1-0.1c-0.4-0.6-0.6-0.9-0.7-0.9c-0.1-0.1-0.7-0.1-1.6-0.1l-2.6,0h-6c-1.9,0-3.1,0-3.7,0.1
					c-0.2,0-0.4,0.2-0.4,0.4c0,0.1-0.1,0.5-0.1,1.3l-0.1,0.1h-0.8l-0.1-0.1c0-0.8,0.1-1.5,0.1-2.3c0-1.7,0-3.3-0.1-4.7
					c0-0.7,0-1.4,0-2.1c0-1.9,0.2-3.4,0.7-4.5c0.5-1.1,1.3-2,2.4-2.7C144.4,1370.5,145.9,1370.2,147.6,1370.2z M148.2,1373.6
					c-2.2,0-3.9,0.5-5,1.5c-0.6,0.5-1,1.2-1.3,2c-0.2,0.7-0.4,1.8-0.4,3.1c0,0.7,0.1,1.4,0.2,2c0.9,0.1,3,0.1,6.4,0.1l5.2,0
					c1.2,0,1.9,0,2.3-0.1c0.1-0.7,0.2-1.3,0.2-2c0-1.5-0.2-2.7-0.7-3.5c-0.5-0.9-1.3-1.7-2.5-2.2
					C151.2,1373.9,149.8,1373.6,148.2,1373.6z"/>
				<path class="st0" d="M156.9,1353.1l0.1,0.1c0,0.7-0.1,1.9-0.1,3.5c0,1.6,0,2.7,0.1,3.4l-0.1,0.1h-0.8l-0.1-0.1
					c0-0.8-0.1-1.2-0.1-1.3c-0.1-0.2-0.2-0.3-0.4-0.4c-0.6-0.1-1.8-0.1-3.7-0.1h-6.3c-1.9,0-3.1,0-3.7,0.1c-0.2,0-0.4,0.2-0.4,0.4
					c0,0.1-0.1,0.5-0.1,1.3l-0.1,0.1h-0.8l-0.1-0.1c0-0.7,0.1-1.9,0.1-3.4c0-1.6,0-2.7-0.1-3.4l0.1-0.1h0.8l0.1,0.1
					c0,0.8,0.1,1.2,0.1,1.3c0.1,0.2,0.2,0.3,0.4,0.4c0.6,0.1,1.8,0.1,3.7,0.1h6.3c1.9,0,3.1,0,3.7-0.1c0.2,0,0.4-0.2,0.4-0.4
					c0-0.1,0.1-0.5,0.1-1.3l0.1-0.1H156.9z"/>
				<path class="st0" d="M147.6,1326.2c2.7,0,4.9,0.8,6.6,2.5c0.9,0.8,1.5,1.8,2,2.9c0.5,1.2,0.8,2.7,0.7,4.3l-0.1,4
					c0,1.1,0,2,0.1,2.7l-0.1,0.1h-0.3l-0.1-0.1c-0.4-0.6-0.6-0.9-0.7-0.9c-0.1-0.1-0.7-0.1-1.6-0.1l-2.6,0h-6c-1.9,0-3.1,0-3.7,0.1
					c-0.2,0-0.4,0.2-0.4,0.4c0,0.1-0.1,0.5-0.1,1.3l-0.1,0.1h-0.8l-0.1-0.1c0-0.8,0.1-1.5,0.1-2.3c0-1.7,0-3.3-0.1-4.7
					c0-0.7,0-1.4,0-2.1c0-1.9,0.2-3.4,0.7-4.5c0.5-1.1,1.3-2,2.4-2.7C144.4,1326.5,145.9,1326.2,147.6,1326.2z M148.2,1329.7
					c-2.2,0-3.9,0.5-5,1.5c-0.6,0.5-1,1.2-1.3,2c-0.2,0.7-0.4,1.8-0.4,3.1c0,0.7,0.1,1.4,0.2,2c0.9,0.1,3,0.1,6.4,0.1l5.2,0
					c1.2,0,1.9,0,2.3-0.1c0.1-0.7,0.2-1.3,0.2-2c0-1.5-0.2-2.7-0.7-3.5c-0.5-0.9-1.3-1.7-2.5-2.2
					C151.2,1329.9,149.8,1329.7,148.2,1329.7z"/>
				<path class="st0" d="M148.2,1299.1c2.9,0,5.2,0.8,6.8,2.4c1.6,1.6,2.4,3.7,2.4,6.4c0,2.6-0.8,4.6-2.3,6
					c-1.5,1.5-3.6,2.2-6.3,2.2c-3.8,0-6.4-1.4-7.9-4.1c-0.7-1.2-1-2.8-1-4.6c0-2.6,0.7-4.6,2.2-6.1
					C143.6,1299.8,145.6,1299.1,148.2,1299.1z M148.8,1302.6c-2.3,0-4.1,0.4-5.4,1.3c-1.3,0.9-2,2.1-2,3.8c0,2.2,1.1,3.7,3.2,4.4
					c1.1,0.4,2.3,0.6,3.6,0.6c2.4,0,4.4-0.4,5.8-1.3c1.5-0.9,2.2-2.2,2.2-4c0-2.1-1.1-3.6-3.3-4.3
					C151.6,1302.8,150.2,1302.6,148.8,1302.6z"/>
				<path class="st0" d="M147.6,1258.3c2.7,0,4.9,0.8,6.6,2.5c0.9,0.8,1.5,1.8,2,2.9c0.5,1.2,0.8,2.7,0.7,4.3l-0.1,4
					c0,1.1,0,2,0.1,2.7l-0.1,0.1h-0.3l-0.1-0.1c-0.4-0.6-0.6-0.9-0.7-0.9c-0.1-0.1-0.7-0.1-1.6-0.1l-2.6,0h-6c-1.9,0-3.1,0-3.7,0.1
					c-0.2,0-0.4,0.2-0.4,0.4c0,0.1-0.1,0.5-0.1,1.3l-0.1,0.1h-0.8l-0.1-0.1c0-0.8,0.1-1.5,0.1-2.3c0-1.7,0-3.3-0.1-4.7
					c0-0.7,0-1.4,0-2.1c0-1.9,0.2-3.4,0.7-4.5c0.5-1.1,1.3-2,2.4-2.7C144.4,1258.6,145.9,1258.3,147.6,1258.3z M148.2,1261.8
					c-2.2,0-3.9,0.5-5,1.5c-0.6,0.5-1,1.2-1.3,2c-0.2,0.7-0.4,1.8-0.4,3.1c0,0.7,0.1,1.4,0.2,2c0.9,0.1,3,0.1,6.4,0.1l5.2,0
					c1.2,0,1.9,0,2.3-0.1c0.1-0.7,0.2-1.3,0.2-2c0-1.5-0.2-2.7-0.7-3.5c-0.5-0.9-1.3-1.7-2.5-2.2
					C151.2,1262,149.8,1261.8,148.2,1261.8z"/>
				<path class="st0" d="M153,1236.2c1.2,0.2,2.5,0.2,3.9,0.2l0.1,0.1l-0.1,8.1c0,1.4,0,2.3,0.1,2.9l-0.1,0.1h-0.3l-0.1-0.1
					c-0.4-0.6-0.6-0.9-0.7-0.9c-0.2-0.1-0.7-0.1-1.6-0.1l-2.6,0h-6c-1.9,0-3.1,0-3.7,0.1c-0.2,0-0.4,0.2-0.4,0.4
					c0,0.1-0.1,0.5-0.1,1.3l-0.1,0.1h-0.8l-0.1-0.1c0-0.8,0.1-1.9,0.1-3.5c0-1.4,0-4.1-0.1-8l0.1-0.1l1.3,0.1c0.4,0,0.8,0.1,1.1,0.1
					l1.1,0.1l0.1,0.1v0.6l-0.1,0.1c-1.1,0-1.7,0.1-1.8,0.2c-0.1,0.1-0.2,0.5-0.3,1.2c-0.1,0.7-0.1,1.4-0.1,1.9c0,0.6,0,1.3,0.1,2
					c0.8,0.1,2,0.1,3.4,0.1h2.4c0-0.6,0.1-1.1,0.1-1.4l0-1.5c0-0.7-0.1-1.1-0.2-1.2c-0.1-0.1-0.7-0.2-1.6-0.2l-0.1-0.1v-0.7l0.1-0.1
					c0.9,0,1.7,0,2.4,0c0.8,0,1.7,0,2.6,0l0.1,0.1v0.8l-0.1,0.1c-0.9,0-1.4,0.1-1.6,0.2c-0.2,0.1-0.3,0.5-0.3,1.1
					c0,0.5-0.1,0.9-0.1,1.5c0,0.5,0,1.1,0.1,1.5h3.6c1,0,2,0,3-0.1v-1.5c0-2.2-0.1-3.5-0.3-4c0-0.1-0.1-0.1-0.1-0.2
					c-0.1-0.1-0.3-0.1-0.7-0.2l-1.5-0.3l-0.1-0.1v-0.7L153,1236.2z"/>
				<path class="st0" d="M148.2,1195.6c2.9,0,5.2,0.8,6.8,2.4c1.6,1.6,2.4,3.7,2.4,6.4c0,2.6-0.8,4.6-2.3,6
					c-1.5,1.5-3.6,2.2-6.3,2.2c-3.8,0-6.4-1.4-7.9-4.1c-0.7-1.2-1-2.8-1-4.6c0-2.6,0.7-4.6,2.2-6.1
					C143.6,1196.3,145.6,1195.6,148.2,1195.6z M148.8,1199c-2.3,0-4.1,0.4-5.4,1.3c-1.3,0.9-2,2.1-2,3.8c0,2.2,1.1,3.7,3.2,4.4
					c1.1,0.4,2.3,0.6,3.6,0.6c2.4,0,4.4-0.4,5.8-1.3c1.5-0.9,2.2-2.2,2.2-4c0-2.1-1.1-3.6-3.3-4.3
					C151.6,1199.2,150.2,1199,148.8,1199z"/>
				<path class="st0" d="M153,1173.5c1.2,0.2,2.5,0.2,3.9,0.2l0.1,0.1l-0.1,8.1c0,1.4,0,2.3,0.1,2.9l-0.1,0.1h-0.3l-0.1-0.1
					c-0.4-0.6-0.6-0.9-0.7-0.9c-0.1-0.1-0.7-0.1-1.6-0.1l-2.6,0h-6c-1.9,0-3.1,0-3.7,0.1c-0.2,0-0.4,0.2-0.4,0.4
					c0,0.1-0.1,0.5-0.1,1.3l-0.1,0.1h-0.8l-0.1-0.1c0-0.8,0.1-1.9,0.1-3.4c0-1.5,0-2.7-0.1-3.5l0.1-0.1h0.8l0.1,0.1
					c0,0.8,0.1,1.2,0.1,1.3c0.1,0.2,0.2,0.3,0.4,0.4c0.6,0.1,1.8,0.1,3.7,0.1h7.1c1,0,2,0,3-0.1v-1.5c0-2.2-0.1-3.5-0.3-4
					c0-0.1-0.1-0.1-0.1-0.2c-0.1-0.1-0.3-0.1-0.7-0.2l-1.5-0.3l-0.1-0.1v-0.7L153,1173.5z"/>
				<path class="st0" d="M156.9,1156.6l0.1,0.1c0,0.7-0.1,1.9-0.1,3.5c0,1.6,0,2.7,0.1,3.4l-0.1,0.1h-0.8l-0.1-0.1
					c0-0.8-0.1-1.2-0.1-1.3c-0.1-0.2-0.2-0.3-0.4-0.4c-0.6-0.1-1.8-0.1-3.7-0.1h-6.3c-1.9,0-3.1,0-3.7,0.1c-0.2,0-0.4,0.2-0.4,0.4
					c0,0.1-0.1,0.5-0.1,1.3l-0.1,0.1h-0.8l-0.1-0.1c0-0.7,0.1-1.9,0.1-3.4c0-1.6,0-2.7-0.1-3.4l0.1-0.1h0.8l0.1,0.1
					c0,0.8,0.1,1.2,0.1,1.3c0.1,0.2,0.2,0.3,0.4,0.4c0.6,0.1,1.8,0.1,3.7,0.1h6.3c1.9,0,3.1,0,3.7-0.1c0.2,0,0.4-0.2,0.4-0.4
					c0-0.1,0.1-0.5,0.1-1.3l0.1-0.1H156.9z"/>
				<path class="st0" d="M141.1,1130.2l0.1,0.1c0.1,0.5,0.1,0.9,0.2,1c0.1,0.1,0.3,0.3,0.5,0.5c0.3,0.2,1,0.5,2.2,1l2,0.8l3.9,1.5
					c3.3,1.3,5.6,2.2,7,2.6v1.7l-13.2,5.1c-1.4,0.5-2.2,0.9-2.4,1.1c-0.2,0.2-0.3,0.6-0.3,1.4l-0.1,0.1h-0.8l-0.1-0.1
					c0-0.8,0.1-1.8,0.1-3c0-1.5,0-2.9-0.1-4.1l0.1-0.1h0.8l0.1,0.1c0,0.8,0.1,1.2,0.2,1.5c0.1,0.1,0.2,0.2,0.4,0.2
					c0.2,0,1-0.2,2.2-0.7l1.4-0.5l7.4-2.8l-6.6-2.5c-0.3-0.1-0.9-0.3-1.9-0.7c-1.5-0.5-2.3-0.8-2.6-0.8c-0.3,0-0.4,0.1-0.5,0.2
					c-0.1,0.2-0.1,0.7-0.1,1.5l-0.1,0.1h-0.8l-0.1-0.1c0-0.8,0.1-1.7,0.1-2.6c0-0.6,0-1.4-0.1-2.4l0.1-0.1H141.1z"/>
				<path class="st0" d="M153,1108.8c1.2,0.2,2.5,0.2,3.9,0.2l0.1,0.1l-0.1,8.1c0,1.4,0,2.3,0.1,2.9l-0.1,0.1h-0.3l-0.1-0.1
					c-0.4-0.6-0.6-0.9-0.7-0.9c-0.2-0.1-0.7-0.1-1.6-0.1l-2.6,0h-6c-1.9,0-3.1,0-3.7,0.1c-0.2,0-0.4,0.2-0.4,0.4
					c0,0.1-0.1,0.5-0.1,1.3l-0.1,0.1h-0.8l-0.1-0.1c0-0.8,0.1-1.9,0.1-3.5c0-1.4,0-4.1-0.1-8l0.1-0.1l1.3,0.1c0.4,0,0.8,0.1,1.1,0.1
					l1.1,0.1l0.1,0.1v0.6l-0.1,0.1c-1.1,0-1.7,0.1-1.8,0.2c-0.1,0.1-0.2,0.5-0.3,1.2c-0.1,0.7-0.1,1.4-0.1,1.9c0,0.6,0,1.3,0.1,2
					c0.8,0.1,2,0.1,3.4,0.1h2.4c0-0.6,0.1-1.1,0.1-1.4l0-1.5c0-0.7-0.1-1.1-0.2-1.2c-0.1-0.1-0.7-0.2-1.6-0.2l-0.1-0.1v-0.7l0.1-0.1
					c0.9,0,1.7,0,2.4,0c0.8,0,1.7,0,2.6,0l0.1,0.1v0.8l-0.1,0.1c-0.9,0-1.4,0.1-1.6,0.2c-0.2,0.1-0.3,0.5-0.3,1.1
					c0,0.5-0.1,0.9-0.1,1.5c0,0.5,0,1.1,0.1,1.5h3.6c1,0,2,0,3-0.1v-1.5c0-2.2-0.1-3.5-0.3-4c0-0.1-0.1-0.1-0.1-0.2
					c-0.1-0.1-0.3-0.1-0.7-0.2l-1.5-0.3l-0.1-0.1v-0.7L153,1108.8z"/>
				<path class="st0" d="M156.9,1092l0.1,0.1c0,0.7-0.1,1.9-0.1,3.5c0,1.6,0,2.7,0.1,3.4l-0.1,0.1h-0.8l-0.1-0.1
					c0-0.8-0.1-1.2-0.1-1.3c-0.1-0.2-0.2-0.3-0.4-0.4c-0.6-0.1-1.8-0.1-3.7-0.1h-6.3c-1.9,0-3.1,0-3.7,0.1c-0.2,0-0.4,0.2-0.4,0.4
					c0,0.1-0.1,0.5-0.1,1.3l-0.1,0.1h-0.8l-0.1-0.1c0-0.7,0.1-1.9,0.1-3.4c0-1.6,0-2.7-0.1-3.4l0.1-0.1h0.8l0.1,0.1
					c0,0.8,0.1,1.2,0.1,1.3c0.1,0.2,0.2,0.3,0.4,0.4c0.6,0.1,1.8,0.1,3.7,0.1h6.3c1.9,0,3.1,0,3.7-0.1c0.2,0,0.4-0.2,0.4-0.4
					c0-0.1,0.1-0.5,0.1-1.3l0.1-0.1H156.9z"/>
				<path class="st0" d="M156.9,1067l0.1,0.1c0,0.1,0,0.2,0,0.4c0,1-0.1,1.7-0.1,1.9c0,0.4,0,1,0.1,1.8c-0.2,0-0.5,0.2-0.9,0.4
					l-4.9,2.8l-2,1.2c-0.2,0.2-0.5,0.4-0.7,0.7l-0.4-0.1c0-0.2,0-0.3,0-0.4c0-0.7-0.1-1.3-0.4-1.7c-0.2-0.4-0.6-0.7-1.2-1.1
					s-1.2-0.5-2-0.5c-1.3,0-2.2,0.5-2.7,1.4c-0.2,0.4-0.3,1.1-0.3,2c0,0.4,0,0.7,0.1,1.1c0.8,0.1,2.1,0.1,3.9,0.1h6.2
					c1.9,0,3.1,0,3.7-0.1c0.2,0,0.4-0.2,0.4-0.4c0-0.1,0.1-0.5,0.1-1.3l0.1-0.1h0.8l0.1,0.1c0,0.7-0.1,1.9-0.1,3.4
					c0,1.6,0,2.8,0.1,3.4l-0.1,0.1h-0.8l-0.1-0.1c0-0.8-0.1-1.2-0.1-1.3c-0.1-0.2-0.2-0.3-0.4-0.4c-0.6-0.1-1.8-0.1-3.7-0.1h-6.3
					c-1.9,0-3.1,0-3.7,0.1c-0.2,0-0.4,0.2-0.4,0.4c0,0.1-0.1,0.5-0.1,1.3l-0.1,0.1h-0.8l-0.1-0.1c0-0.7,0.1-1.9,0.1-3.4
					c0-0.9,0-1.6,0-2.2c0-1.1-0.1-2-0.1-2.5c0-1.3,0.1-2.2,0.4-2.8c0.3-0.8,0.9-1.4,1.7-1.6c0.4-0.1,0.8-0.2,1.4-0.2
					c2.1,0,3.7,1.1,4.6,3.4c0.7-0.4,1.3-0.8,2-1.2l2.8-1.7c1.7-1,2.6-1.7,2.8-2c0.1-0.2,0.2-0.4,0.2-0.7l0.1-0.1H156.9z"/>
				<path class="st0" d="M156.9,1041.4l0.1,0.1c0,1.7-0.1,2.7-0.1,3c0,1.4,0,2.6,0.1,3.8l-0.1,0.1h-0.7l-0.1-0.1l-0.1-1
					c0-0.4-0.2-0.6-0.5-0.6c-0.2,0-0.5,0.1-1.1,0.3l-2.5,0.9c0,1,0,2.1,0,3.2c0,0.6,0,1.4,0,2.6l1.4,0.5c1.1,0.4,1.8,0.6,2.1,0.6
					c0.3,0,0.5-0.2,0.5-0.5c0-0.2,0.1-0.6,0.1-1.1l0.1-0.1h0.8l0.1,0.1c0,1.4-0.1,2.3-0.1,2.7c0,0.3,0,1.1,0.1,2.3l-0.1,0.1h-0.8
					l-0.1-0.1c0-0.8-0.2-1.2-0.5-1.4s-1.9-0.8-4.9-2l-7.7-2.9c-0.6-0.2-1.5-0.5-2.7-1v-1.6l14.7-5.9c0.6-0.2,0.9-0.4,0.9-0.6
					c0.1-0.2,0.1-0.6,0.1-1.1l0.1-0.1H156.9z M150.5,1048.5l-6.2,2.4l6.2,2.3c0-0.6,0-1.4,0-2.4
					C150.5,1049.8,150.5,1049.1,150.5,1048.5z"/>
			</g>
			<path id="path3780-2" inkscape:connector-curvature="0" class="st0" d="M135,826.8l0.5,13.5c0.6,5,1.4,9.1,9.5,9.6v0c0,0,0,0,0,0
				c0,0,0,0,0,0v0c8.4-0.9,9.2-4.6,9.8-9.6l0.5-13.5h-10.3L135,826.8L135,826.8z M140.3,830.7c1,0,1.8,0.8,1.8,1.8c0,0,0,0,0,0
				c0,1-0.8,1.8-1.8,1.8c0,0,0,0,0,0c-1,0-1.8-0.8-1.8-1.8c0,0,0,0,0,0C138.5,831.5,139.3,830.7,140.3,830.7
				C140.3,830.7,140.3,830.7,140.3,830.7z M150.3,830.7c1,0,1.8,0.8,1.8,1.8c0,0,0,0,0,0c0,1-0.8,1.8-1.8,1.8c0,0,0,0,0,0
				c-1,0-1.8-0.8-1.8-1.8C148.5,831.5,149.3,830.7,150.3,830.7z M145.3,835.4c1,0,1.8,0.8,1.8,1.8c0,0,0,0,0,0c0,1-0.8,1.8-1.8,1.8
				c0,0,0,0,0,0c-1,0-1.8-0.8-1.8-1.8c0,0,0,0,0,0C143.5,836.2,144.3,835.4,145.3,835.4C145.3,835.4,145.3,835.4,145.3,835.4z
				 M140.3,840.3c1,0,1.8,0.8,1.8,1.8c0,0,0,0,0,0c0,1-0.8,1.8-1.8,1.8c0,0,0,0,0,0c-1,0-1.8-0.8-1.8-1.8c0,0,0,0,0,0
				C138.5,841.1,139.3,840.3,140.3,840.3C140.3,840.3,140.3,840.3,140.3,840.3z M150.3,840.3c1,0,1.8,0.8,1.8,1.8c0,0,0,0,0,0
				c0,1-0.8,1.8-1.8,1.8c0,0,0,0,0,0c-1,0-1.8-0.8-1.8-1.8C148.5,841.1,149.3,840.3,150.3,840.3z"/>
			<path id="path3780-2-0" inkscape:connector-curvature="0" class="st0" d="M164.5,826.8l0.5,13.5c0.6,5,1.4,9.1,9.5,9.6v0
				c0,0,0,0,0,0c0,0,0,0,0,0v0c8.4-0.9,9.2-4.6,9.8-9.6l0.5-13.5h-10.3L164.5,826.8L164.5,826.8z M169.8,830.7c1,0,1.8,0.8,1.8,1.8
				c0,0,0,0,0,0c0,1-0.8,1.8-1.8,1.8c0,0,0,0,0,0c-1,0-1.8-0.8-1.8-1.8c0,0,0,0,0,0C168,831.5,168.8,830.7,169.8,830.7
				C169.8,830.7,169.8,830.7,169.8,830.7z M179.8,830.7c1,0,1.8,0.8,1.8,1.8c0,0,0,0,0,0c0,1-0.8,1.8-1.8,1.8c0,0,0,0,0,0
				c-1,0-1.8-0.8-1.8-1.8C178,831.5,178.8,830.7,179.8,830.7z M174.8,835.4c1,0,1.8,0.8,1.8,1.8c0,0,0,0,0,0c0,1-0.8,1.8-1.8,1.8
				c0,0,0,0,0,0c-1,0-1.8-0.8-1.8-1.8c0,0,0,0,0,0C173,836.2,173.8,835.4,174.8,835.4C174.8,835.4,174.8,835.4,174.8,835.4z
				 M169.8,840.3c1,0,1.8,0.8,1.8,1.8c0,0,0,0,0,0c0,1-0.8,1.8-1.8,1.8c0,0,0,0,0,0c-1,0-1.8-0.8-1.8-1.8c0,0,0,0,0,0
				C168,841.1,168.8,840.3,169.8,840.3C169.8,840.3,169.8,840.3,169.8,840.3z M179.8,840.3c1,0,1.8,0.8,1.8,1.8c0,0,0,0,0,0
				c0,1-0.8,1.8-1.8,1.8c0,0,0,0,0,0c-1,0-1.8-0.8-1.8-1.8C178,841.1,178.8,840.3,179.8,840.3z"/>
			<path id="path3780-2-0-6" inkscape:connector-curvature="0" class="st0" d="M105.3,827l0.5,13.5c0.6,5,1.4,9.1,9.5,9.6v0
				c0,0,0,0,0,0c0,0,0,0,0,0v0c8.4-0.9,9.2-4.6,9.8-9.6l0.5-13.5h-10.3L105.3,827L105.3,827z M110.5,830.8c1,0,1.8,0.8,1.8,1.8
				c0,0,0,0,0,0c0,1-0.8,1.8-1.8,1.8c0,0,0,0,0,0c-1,0-1.8-0.8-1.8-1.8c0,0,0,0,0,0C108.7,831.6,109.5,830.8,110.5,830.8
				C110.5,830.8,110.5,830.8,110.5,830.8z M120.5,830.8c1,0,1.8,0.8,1.8,1.8c0,0,0,0,0,0c0,1-0.8,1.8-1.8,1.8c0,0,0,0,0,0
				c-1,0-1.8-0.8-1.8-1.8C118.7,831.6,119.5,830.8,120.5,830.8z M115.5,835.5c1,0,1.8,0.8,1.8,1.8c0,0,0,0,0,0c0,1-0.8,1.8-1.8,1.8
				c0,0,0,0,0,0c-1,0-1.8-0.8-1.8-1.8c0,0,0,0,0,0C113.7,836.3,114.5,835.5,115.5,835.5C115.5,835.5,115.5,835.5,115.5,835.5z
				 M110.5,840.5c1,0,1.8,0.8,1.8,1.8c0,0,0,0,0,0c0,1-0.8,1.8-1.8,1.8c0,0,0,0,0,0c-1,0-1.8-0.8-1.8-1.8c0,0,0,0,0,0
				C108.7,841.3,109.5,840.5,110.5,840.5C110.5,840.5,110.5,840.5,110.5,840.5z M120.5,840.5c1,0,1.8,0.8,1.8,1.8c0,0,0,0,0,0
				c0,1-0.8,1.8-1.8,1.8c0,0,0,0,0,0c-1,0-1.8-0.8-1.8-1.8C118.7,841.3,119.5,840.5,120.5,840.5z"/>
			<path id="path3780-2-0-6-9" inkscape:connector-curvature="0" class="st0" d="M135,856.7l0.5,13.5c0.6,5,1.4,9.1,9.5,9.6v0
				c0,0,0,0,0,0c0,0,0,0,0,0v0c8.4-0.9,9.2-4.6,9.8-9.6l0.5-13.5H145L135,856.7L135,856.7z M140.2,860.6c1,0,1.8,0.8,1.8,1.8
				c0,0,0,0,0,0c0,1-0.8,1.8-1.8,1.8c0,0,0,0,0,0c-1,0-1.8-0.8-1.8-1.8c0,0,0,0,0,0C138.4,861.4,139.2,860.6,140.2,860.6
				C140.2,860.6,140.2,860.6,140.2,860.6z M150.2,860.6c1,0,1.8,0.8,1.8,1.8c0,0,0,0,0,0c0,1-0.8,1.8-1.8,1.8c0,0,0,0,0,0
				c-1,0-1.8-0.8-1.8-1.8C148.4,861.4,149.2,860.6,150.2,860.6z M145.2,865.3c1,0,1.8,0.8,1.8,1.8c0,0,0,0,0,0c0,1-0.8,1.8-1.8,1.8
				c0,0,0,0,0,0c-1,0-1.8-0.8-1.8-1.8c0,0,0,0,0,0C143.4,866.1,144.2,865.3,145.2,865.3C145.2,865.3,145.2,865.3,145.2,865.3z
				 M140.2,870.2c1,0,1.8,0.8,1.8,1.8c0,0,0,0,0,0c0,1-0.8,1.8-1.8,1.8c0,0,0,0,0,0c-1,0-1.8-0.8-1.8-1.8c0,0,0,0,0,0
				C138.4,871,139.2,870.2,140.2,870.2C140.2,870.2,140.2,870.2,140.2,870.2z M150.2,870.2c1,0,1.8,0.8,1.8,1.8c0,0,0,0,0,0
				c0,1-0.8,1.8-1.8,1.8c0,0,0,0,0,0c-1,0-1.8-0.8-1.8-1.8C148.4,871,149.2,870.2,150.2,870.2z"/>
		</g>
	</g>
</g>
</svg>
