<?xml version="1.0" encoding="utf-8"?>
<!-- Generator: Adobe Illustrator 25.2.3, SVG Export Plug-In . SVG Version: 6.00 Build 0)  -->
<svg version="1.1"
	 id="svg2" inkscape:version="0.92.1 r15371" xmlns:cc="http://creativecommons.org/ns#" xmlns:dc="http://purl.org/dc/elements/1.1/" xmlns:inkscape="http://www.inkscape.org/namespaces/inkscape" xmlns:rdf="http://www.w3.org/1999/02/22-rdf-syntax-ns#" xmlns:sodipodi="http://sodipodi.sourceforge.net/DTD/sodipodi-0.dtd" xmlns:svg="http://www.w3.org/2000/svg"
	 xmlns="http://www.w3.org/2000/svg" xmlns:xlink="http://www.w3.org/1999/xlink" x="0px" y="0px" viewBox="0 0 16 50"
	 style="enable-background:new 0 0 16 50;" xml:space="preserve">
<style type="text/css">
	.st0{fill:#C30000;stroke:#FFFFFF;stroke-width:8.583222e-02;stroke-linecap:round;stroke-linejoin:round;}
	.st1{fill:#C30000;}
	.st2{fill:#C30000;fill-opacity:0.2471;stroke:#FFFFFF;stroke-width:8.473909e-02;stroke-linecap:round;stroke-linejoin:round;}
	.st3{fill:#C30000;stroke:#FFFFFF;stroke-width:8.473910e-02;}
</style>
<defs  style="display:none;">
	<inkscape:path-effect  effect="spiro" id="path-effect3836" is_visible="true"></inkscape:path-effect>
	<inkscape:path-effect  effect="spiro" id="path-effect3827" is_visible="true"></inkscape:path-effect>
	<inkscape:path-effect  effect="spiro" id="path-effect3822" is_visible="true"></inkscape:path-effect>
	<inkscape:path-effect  effect="spiro" id="path-effect3817" is_visible="true"></inkscape:path-effect>
	<inkscape:path-effect  effect="spiro" id="path-effect3812" is_visible="true"></inkscape:path-effect>
	<inkscape:path-effect  effect="spiro" id="path-effect3807" is_visible="true"></inkscape:path-effect>
	<inkscape:path-effect  effect="spiro" id="path-effect3797" is_visible="true"></inkscape:path-effect>
</defs>
<sodipodi:namedview  bordercolor="#666666" borderopacity="1.0" id="base" inkscape:current-layer="layer1" inkscape:cx="8" inkscape:cy="25" inkscape:document-units="px" inkscape:pageopacity="0.0" inkscape:pageshadow="2" inkscape:window-height="1017" inkscape:window-maximized="1" inkscape:window-width="1920" inkscape:window-x="-8" inkscape:window-y="-8" inkscape:zoom="17.3" pagecolor="#ffffff" showgrid="false">
	</sodipodi:namedview>
<g id="layer1" transform="translate(0,-1002.3622)" inkscape:groupmode="layer" inkscape:label="Livello 1">
	<ellipse id="path2996" class="st0" cx="7.9" cy="1014.1" rx="5" ry="0.4"/>
	<path id="path3773" inkscape:connector-curvature="0" sodipodi:nodetypes="ccccc" class="st1" d="M5.7,1019.7h1.5
		c-0.6,9.6-2.6,18.6-4.9,27.3c0,0-0.1-0.1-0.1-0.2C4.7,1038.3,5.8,1028.9,5.7,1019.7z"/>
	<path id="path3771" inkscape:connector-curvature="0" sodipodi:nodetypes="cccc" class="st1" d="M10.5,1052.1l1.5-0.1
		c-0.4-7.7-1.1-18.7-0.8-23.4C10.5,1036.3,10.3,1044.1,10.5,1052.1z"/>
	<path id="path3769" inkscape:connector-curvature="0" sodipodi:nodetypes="ccccc" class="st1" d="M1.6,1051.3h0.3
		c3.4-11,5.5-22.6,8-34.1H8.1C6.6,1027,4.7,1040.1,1.6,1051.3z"/>
	<path id="path3775" inkscape:connector-curvature="0" sodipodi:nodetypes="ccccc" class="st1" d="M9.7,1019.7h1.7
		c-2.4,8.4-4.8,18.8-6.8,28.2c-0.8-0.1-1.1-0.2-1.4-0.3C5.7,1038.3,7.7,1029,9.7,1019.7z"/>
	<path id="path3777" inkscape:connector-curvature="0" sodipodi:nodetypes="ccccc" class="st1" d="M7.8,1048.1c0.6,0,1.2,0,1.8,0
		c0.3-9.7,2.3-25.2,3.7-28.3h-0.4C9.4,1029.4,8.9,1039,7.8,1048.1L7.8,1048.1z"/>
	<path id="path2995" inkscape:connector-curvature="0" sodipodi:nodetypes="cccc" class="st1" d="M12.2,1047.7c0.3,0,1-0.3,1.4-0.7
		l-2.3-12.2C11.8,1039.1,12.3,1043.3,12.2,1047.7z"/>
	<path id="path3767" inkscape:connector-curvature="0" sodipodi:nodetypes="ccccc" class="st1" d="M4.4,1052c0.1,0.1,1,0.2,1.5,0.2
		l6.8-35h-0.9L4.4,1052z"/>
	<path id="path3782" inkscape:connector-curvature="0" sodipodi:nodetypes="cccc" class="st1" d="M4,1017.2h1.3
		c0.3,7.1-0.3,14.7-1.2,20.9C5.3,1031.1,4.2,1023.9,4,1017.2L4,1017.2z"/>
	<circle id="path3832" class="st2" cx="8" cy="1009.9" r="4.7"/>
	<path id="path3815" inkscape:connector-curvature="0" sodipodi:nodetypes="cccccc" class="st3" d="M5,1016.2l1.4-2.3l-0.9-4.6
		l4.8-0.2l4,3.5C12.9,1016.6,7.6,1017.8,5,1016.2"/>
	<path id="path3820" inkscape:connector-curvature="0" sodipodi:nodetypes="ccccc" class="st3" d="M4.4,1015.8l1-1.7l-3.2-7.7
		l0.1-0.9C-0.4,1008.4-0.6,1013.4,4.4,1015.8"/>
	<path id="path3825" inkscape:connector-curvature="0" sodipodi:nodetypes="cccc" class="st3" d="M5.3,1007.2
		c-0.7-2.6,5.2-2.4,5.2,0c-1.8-1.5-4.7-0.7-5.1,0.1L5.3,1007.2z"/>
	<path id="path3810" inkscape:connector-curvature="0" sodipodi:nodetypes="ccccccccssc" class="st3" d="M12,1011.3l2.8,1.5
		c1-2,1.7-6-2.6-8.4c-3.1,0-5.5,0.2-8.8,0.2c-2.7,2.1-2.8,5.1-1.9,7c0.8,1.6,3,3.2,6,3.4c1.3,0,1.9-0.2,2.5-0.5l-0.9-2
		c-2.1-2.1-4.9-4.2-3.8-5.5c1.1-1.3,3.8-1.8,5.1-0.2C11.3,1007.7,10.7,1010,12,1011.3"/>
	<path id="path3805" inkscape:connector-curvature="0" sodipodi:nodetypes="cccccccccccc" class="st3" d="M14.3,1006.9l-2.3,0.7
		c0.1-1.3-0.5-1.8-1.7-1.6c-1.5-1.4-3.8-1.1-4.9,0.3c-0.7,1.3,0.1,5.2,5.9,2.7c0.4,0.2,2.2,1,2.2,1s-1.4,1.8-2.4,2.4
		c-1.7,1.1-4.6,1.1-6.4,0c-1.7-1-3.2-3-2.9-5c0.2-1.5,1-2.5,1.8-3.1c3.2-2.4,6.7-1.6,8.7,0C13.4,1005.3,13.9,1006,14.3,1006.9"/>
	<path id="path3787" inkscape:connector-curvature="0" sodipodi:nodetypes="ccccccccccccc" class="st3" d="M10.8,1003.2l-1.1,1.8
		c-1-0.8-2.5-0.7-3.4,0c-1.2,0.8-1.2,2.4,0,3.3c1,0.7,2.2,0.5,3.1,0c0.8-0.6,1.3-1.3,0.7-2.5l2-0.7c0.5,1.2,0.6,2.3,0,3.4
		c-0.8,1.3-2.1,2.2-4.1,2.4c-1.8,0-4-0.5-4.8-2.8c-0.4-1.4,0-3,1.1-3.9c1.1-1,2.5-1.5,5-1.2C9.8,1002.8,10.4,1003,10.8,1003.2
		L10.8,1003.2z"/>
</g>
</svg>
