<svg xmlns="http://www.w3.org/2000/svg" viewBox="0 0 431.85 86.83"><defs><style>.cls-1{fill:none;stroke:#1d1d1b;stroke-width:2.83px;}.cls-2{fill:#1d1d1b;}</style></defs><g id="Ebene_2" data-name="Ebene 2"><g id="Ebene_1-2" data-name="Ebene 1"><path class="cls-1" d="M1.42,85.41V58.65L46.3,32.86V20.5L43.77,18h-23L18.22,20.5v8.64H1.42V13.54L13.54,1.42H51L63.09,13.54V41.26L18.22,67.17v1.68H63.09V85.41Z"/><path class="cls-1" d="M9.42,77.41V63.28l.8-.46v14H55.09v.56ZM54.3,17.18,47.09,10H17.42l-7.2,7.2v4h-.8V16.85l7.43-7.43H47.66l7.43,7.43V36.64l-.79.46Z"/><path class="cls-1" d="M101.73,85.41,77.5,61.17V25.66L101.73,1.42h13.2l24.24,24.24V61.17L114.93,85.41Zm20.64-52.79-14-14-14,14v21.6l14,14,14-14Z"/><path class="cls-1" d="M110.49,77.41l19.88-19.88V29.3L110.49,9.42h1.13L131.17,29V57.86L111.62,77.41Zm-5.44,0L85.5,57.86V29L105.05,9.42h1.13L86.29,29.3V57.53l19.89,19.88Z"/><path class="cls-2" d="M177.81,85.41,153.57,61.17V25.66L177.81,1.42H191l24.24,24.24V61.17L191,85.41Zm20.64-52.79-14-14-14,14v21.6l14,14,14-14Z"/><path class="cls-2" d="M253.89,85.41,229.65,61.17V25.66L253.89,1.42h13.2l24.24,24.24V61.17L267.09,85.41Zm20.64-52.79-14-14-14,14v21.6l14,14,14-14Z"/><path class="cls-2" d="M316.05,85.41,303.93,73.29V37.54l12.12-12.12h37.44l12.12,12.12V62.13H320.73v4.2l2.52,2.52H362V85.41ZM348.81,43.3l-2.52-2.52h-23l-2.52,2.52V48h28.08Z"/><path class="cls-2" d="M372.21,85.41V68.85h12V42h-12V25.42h47.52l12.12,12.12V51.81h-16.8V44.5L412.53,42H401V68.85h15.6V85.41Z"/></g></g></svg>