<svg xmlns="http://www.w3.org/2000/svg" viewBox="0 0 425.61 86.83"><defs><style>.cls-1{fill:none;stroke:#c4191a;stroke-width:2.83px;}.cls-2{fill:#c4191a;}</style></defs><g id="Ebene_2" data-name="Ebene 2"><g id="Ebene_1-2" data-name="Ebene 1"><path class="cls-1" d="M1.42,85.41V68.85h16.2V26.14H2V9.58h15.6V1.42h16.8V68.85h16.2V85.41Z"/><polygon class="cls-1" points="9.42 77.41 9.42 76.86 25.62 76.86 25.62 18.14 10.02 18.14 10.02 17.58 25.62 17.58 25.62 9.42 26.42 9.42 26.42 76.86 42.62 76.86 42.62 77.41 9.42 77.41"/><path class="cls-1" d="M79.66,85.41V68.85h34l2.52-2.51V52.9H83.38L71.26,40.78V13.54L83.38,1.42h37.43l12.12,12.12V73.29L120.81,85.41ZM116.13,20.5,113.61,18h-23L88.06,20.5V33.82l2.51,2.52h25.56Z"/><path class="cls-1" d="M87.66,77.41v-.56h29.27l7.2-7.2V44.9H86.69l-7.43-7.44V16.85l7.43-7.43H117.5l7.43,7.43V70l-7.43,7.43Zm-7.6-60.23v20l7.2,7.21h36.87V17.18l-7.2-7.2H87.26Z"/><path class="cls-2" d="M155.73,85.41V68.85h34l2.52-2.51V52.9H159.45L147.33,40.78V13.54L159.45,1.42h37.44L209,13.54V73.29L196.89,85.41ZM192.21,20.5,189.69,18h-23l-2.52,2.52V33.82l2.52,2.52h25.56Z"/><path class="cls-2" d="M247.65,85.41,223.41,61.18V25.66L247.65,1.42h13.2l24.24,24.24V61.18L260.85,85.41Zm20.64-52.79-14-14-14,14v21.6l14,14,14-14Z"/><path class="cls-2" d="M309.81,85.41,297.69,73.29V37.54l12.12-12.12h37.44l12.12,12.12V62.13H314.49v4.21L317,68.85h38.76V85.41ZM342.57,43.3l-2.52-2.52H317l-2.52,2.52V48h28.08Z"/><path class="cls-2" d="M366,85.41V68.85h12V42H366V25.42h47.52l12.12,12.12V51.82h-16.8V44.5L406.29,42H394.77V68.85h15.6V85.41Z"/></g></g></svg>